Normalized EMG Linear Envelopes
nRows=227
nColumns=4

endheader
time	 med_gas_r	  soleus_r	 tib_ant_r	
2.69456	  0.011484	  0.012243	  0.005821	
2.72782	  0.011204	  0.012509	  0.006269	
2.76109	  0.010931	  0.012812	  0.006809	
2.79435	  0.010710	  0.013094	  0.007392	
2.82762	  0.010593	  0.013300	  0.007901	
2.86089	  0.010622	  0.013394	  0.008183	
2.89415	  0.010806	  0.013371	  0.008093	
2.92742	  0.011131	  0.013235	  0.007696	
2.96069	  0.011506	  0.013008	  0.007168	
2.99395	  0.011820	  0.012750	  0.006638	
3.02722	  0.011996	  0.012540	  0.006198	
3.06048	  0.012001	  0.012433	  0.005886	
3.09375	  0.011829	  0.012459	  0.005671	
3.12702	  0.011519	  0.012609	  0.005504	
3.16028	  0.011143	  0.012849	  0.005357	
3.19355	  0.010834	  0.013137	  0.005206	
3.22681	  0.010695	  0.013457	  0.005054	
3.26008	  0.010752	  0.013743	  0.004921	
3.29335	  0.010994	  0.013980	  0.004872	
3.32661	  0.011354	  0.014143	  0.004965	
3.35988	  0.011753	  0.014211	  0.005222	
3.39315	  0.012083	  0.014189	  0.005673	
3.42641	  0.012288	  0.014120	  0.006349	
3.45968	  0.012393	  0.014023	  0.007242	
3.49294	  0.012457	  0.013942	  0.008281	
3.52621	  0.012560	  0.013934	  0.009327	
3.55948	  0.012719	  0.014022	  0.010157	
3.59274	  0.012891	  0.014197	  0.010623	
3.62601	  0.013041	  0.014417	  0.010723	
3.65927	  0.013147	  0.014638	  0.010416	
3.69254	  0.013186	  0.014830	  0.009709	
3.72581	  0.013117	  0.014981	  0.008759	
3.75907	  0.012917	  0.015033	  0.007744	
3.79234	  0.012586	  0.015003	  0.006791	
3.8256	  0.012165	  0.014937	  0.005948	
3.85887	  0.011763	  0.014849	  0.005214	
3.89214	  0.011479	  0.014774	  0.004609	
3.9254	  0.011350	  0.014717	  0.004149	
3.95867	  0.011388	  0.014623	  0.003855	
3.99194	  0.011574	  0.014466	  0.003790	
4.0252	  0.011879	  0.014242	  0.004045	
4.05847	  0.012252	  0.013988	  0.004774	
4.09173	  0.012666	  0.013718	  0.006222	
4.125	  0.013128	  0.013426	  0.008652	
4.15827	  0.013604	  0.013110	  0.012222	
4.19153	  0.014016	  0.012808	  0.016927	
4.2248	  0.014301	  0.012573	  0.022515	
4.25806	  0.014345	  0.012414	  0.028360	
4.29133	  0.014036	  0.012332	  0.033471	
4.3246	  0.013397	  0.012300	  0.036745	
4.35786	  0.012625	  0.012277	  0.038076	
4.39113	  0.011917	  0.012246	  0.037877	
4.4244	  0.011358	  0.012192	  0.036520	
4.45766	  0.010975	  0.012123	  0.035228	
4.49093	  0.010777	  0.012072	  0.035979	
4.52419	  0.010790	  0.012096	  0.040831	
4.55746	  0.011046	  0.012277	  0.051560	
4.59073	  0.011583	  0.012738	  0.069126	
4.62399	  0.012411	  0.013561	  0.093712	
4.65726	  0.013579	  0.014783	  0.124575	
4.69052	  0.015199	  0.016373	  0.159800	
4.72379	  0.017313	  0.018190	  0.196545	
4.75706	  0.019843	  0.020039	  0.231080	
4.79032	  0.022741	  0.021720	  0.260095	
4.82359	  0.026041	  0.023365	  0.284250	
4.85685	  0.029787	  0.025273	  0.306501	
4.89012	  0.033926	  0.027719	  0.330293	
4.92339	  0.038375	  0.030996	  0.356297	
4.95665	  0.043237	  0.035396	  0.384488	
4.98992	  0.048493	  0.041054	  0.415745	
5.02319	  0.054090	  0.048022	  0.450614	
5.05645	  0.059782	  0.056026	  0.489778	
5.08972	  0.065208	  0.064316	  0.531388	
5.12298	  0.069996	  0.071939	  0.572809	
5.15625	  0.074273	  0.078327	  0.614060	
5.18952	  0.078470	  0.083499	  0.656269	
5.22278	  0.082788	  0.087682	  0.698279	
5.25605	  0.087045	  0.091433	  0.736305	
5.28931	  0.090926	  0.095047	  0.766381	
5.32258	  0.093926	  0.098218	  0.788700	
5.35585	  0.096039	  0.101210	  0.806939	
5.38911	  0.097422	  0.104279	  0.820658	
5.42238	  0.097923	  0.106830	  0.827856	
5.45565	  0.097433	  0.108313	  0.832110	
5.48891	  0.096682	  0.109317	  0.839623	
5.52218	  0.096642	  0.110468	  0.854138	
5.55544	  0.097589	  0.111852	  0.873998	
5.58871	  0.099613	  0.113451	  0.898017	
5.62198	  0.102279	  0.114710	  0.921632	
5.65524	  0.104945	  0.115416	  0.939713	
5.68851	  0.107209	  0.116057	  0.949414	
5.72177	  0.108938	  0.116806	  0.949814	
5.75504	  0.110749	  0.117954	  0.943732	
5.78831	  0.112688	  0.118969	  0.931559	
5.82157	  0.113810	  0.118677	  0.912300	
5.85484	  0.113334	  0.116548	  0.890596	
5.8881	  0.111284	  0.113282	  0.868094	
5.92137	  0.107845	  0.109444	  0.845903	
5.95464	  0.103313	  0.105479	  0.828150	
5.9879	  0.098381	  0.102088	  0.817232	
6.02117	  0.094197	  0.100300	  0.813024	
6.05444	  0.091544	  0.100375	  0.815359	
6.0877	  0.090912	  0.101931	  0.822126	
6.12097	  0.092010	  0.103869	  0.827919	
6.15423	  0.093871	  0.104967	  0.827460	
6.1875	  0.096044	  0.105472	  0.819283	
6.22077	  0.098897	  0.105883	  0.809833	
6.25403	  0.102606	  0.106526	  0.803117	
6.2873	  0.107149	  0.107640	  0.802278	
6.32056	  0.112695	  0.109890	  0.811478	
6.35383	  0.118501	  0.113090	  0.827347	
6.3871	  0.123775	  0.116729	  0.844489	
6.42036	  0.127713	  0.120131	  0.862770	
6.45363	  0.129994	  0.122314	  0.880786	
6.4869	  0.130863	  0.123054	  0.893733	
6.52016	  0.130659	  0.122323	  0.895072	
6.55343	  0.130164	  0.121025	  0.884740	
6.58669	  0.129950	  0.120298	  0.865973	
6.61996	  0.129860	  0.120278	  0.842682	
6.65323	  0.129414	  0.120669	  0.818799	
6.68649	  0.128826	  0.121378	  0.797637	
6.71976	  0.128941	  0.122702	  0.782656	
6.75302	  0.129860	  0.124639	  0.772522	
6.78629	  0.131117	  0.126506	  0.761951	
6.81956	  0.132217	  0.127696	  0.749348	
6.85282	  0.132436	  0.127769	  0.736422	
6.88609	  0.131194	  0.126778	  0.725518	
6.91935	  0.128690	  0.125329	  0.720822	
6.95262	  0.125837	  0.124108	  0.722906	
6.98589	  0.123288	  0.123676	  0.730303	
7.01915	  0.121833	  0.124422	  0.742900	
7.05242	  0.122068	  0.126267	  0.759025	
7.08569	  0.123397	  0.128386	  0.776960	
7.11895	  0.124678	  0.129609	  0.795811	
7.15222	  0.124611	  0.128696	  0.812668	
7.18548	  0.122793	  0.125859	  0.827134	
7.21875	  0.119158	  0.121815	  0.840450	
7.25202	  0.114199	  0.117345	  0.848019	
7.28528	  0.109556	  0.113731	  0.847561	
7.31855	  0.105913	  0.111288	  0.840146	
7.35181	  0.103347	  0.109624	  0.826493	
7.38508	  0.101980	  0.108550	  0.807752	
7.41835	  0.101533	  0.107987	  0.784456	
7.45161	  0.101852	  0.108055	  0.761799	
7.48488	  0.102787	  0.108650	  0.744365	
7.51815	  0.104081	  0.109661	  0.736142	
7.55141	  0.105555	  0.111158	  0.740943	
7.58468	  0.107375	  0.112840	  0.756136	
7.61794	  0.109910	  0.114673	  0.776266	
7.65121	  0.112614	  0.116371	  0.793162	
7.68448	  0.114883	  0.117288	  0.799556	
7.71774	  0.117016	  0.117357	  0.797397	
7.75101	  0.119228	  0.116702	  0.789644	
7.78427	  0.121213	  0.115456	  0.779338	
7.81754	  0.121776	  0.112945	  0.769139	
7.85081	  0.120044	  0.108824	  0.759151	
7.88407	  0.116282	  0.103774	  0.752630	
7.91734	  0.111438	  0.098933	  0.752518	
7.9506	  0.106316	  0.095131	  0.759970	
7.98387	  0.101936	  0.093110	  0.772845	
8.01714	  0.099047	  0.093265	  0.784796	
8.0504	  0.097882	  0.095516	  0.795060	
8.08367	  0.098401	  0.099631	  0.807953	
8.11694	  0.100989	  0.105481	  0.823575	
8.1502	  0.105758	  0.112767	  0.836053	
8.18347	  0.112248	  0.120840	  0.835039	
8.21673	  0.119535	  0.128353	  0.817302	
8.25	  0.126123	  0.133921	  0.790576	
8.28327	  0.130375	  0.136738	  0.764663	
8.31653	  0.131545	  0.136839	  0.746176	
8.3498	  0.129999	  0.135099	  0.738121	
8.38306	  0.126622	  0.132229	  0.745543	
8.41633	  0.122293	  0.128672	  0.767444	
8.4496	  0.118254	  0.125417	  0.793786	
8.48286	  0.115107	  0.123042	  0.813830	
8.51613	  0.112866	  0.121731	  0.824922	
8.5494	  0.111253	  0.121556	  0.828964	
8.58266	  0.109549	  0.121848	  0.825062	
8.61593	  0.106938	  0.121019	  0.813708	
8.64919	  0.103817	  0.118362	  0.800783	
8.68246	  0.100643	  0.114170	  0.791801	
8.71573	  0.097910	  0.109721	  0.787105	
8.74899	  0.096274	  0.106291	  0.788146	
8.78226	  0.095807	  0.104198	  0.797208	
8.81552	  0.096466	  0.103653	  0.813348	
8.84879	  0.098218	  0.104545	  0.833798	
8.88206	  0.100673	  0.106168	  0.853113	
8.91532	  0.103228	  0.107412	  0.868844	
8.94859	  0.104882	  0.107339	  0.877341	
8.98185	  0.105429	  0.106129	  0.877589	
9.01512	  0.104996	  0.104054	  0.867874	
9.04839	  0.103583	  0.101478	  0.850799	
9.08165	  0.101575	  0.099049	  0.831626	
9.11492	  0.099354	  0.097283	  0.816238	
9.14819	  0.097618	  0.096739	  0.807880	
9.18145	  0.096325	  0.097206	  0.808503	
9.21472	  0.094933	  0.097990	  0.818491	
9.24798	  0.093053	  0.098612	  0.837759	
9.28125	  0.090650	  0.098733	  0.865750	
9.31452	  0.087687	  0.097833	  0.899585	
9.34778	  0.084483	  0.095719	  0.934043	
9.38105	  0.081482	  0.093170	  0.964858	
9.41431	  0.078737	  0.090460	  0.984695	
9.44758	  0.076030	  0.087416	  0.985711	
9.48085	  0.073445	  0.084019	  0.962967	
9.51411	  0.071548	  0.080656	  0.919447	
9.54738	  0.070806	  0.077874	  0.862704	
9.58065	  0.071088	  0.075934	  0.802097	
9.61391	  0.072087	  0.074956	  0.746790	
9.64718	  0.073536	  0.074976	  0.704081	
9.68044	  0.074985	  0.075566	  0.677625	
9.71371	  0.075984	  0.076138	  0.667086	
9.74698	  0.076838	  0.076986	  0.670380	
9.78024	  0.077941	  0.078643	  0.683435	
9.81351	  0.079237	  0.081056	  0.699445	
9.84677	  0.080534	  0.083466	  0.716629	
9.88004	  0.081221	  0.084655	  0.733102	
9.91331	  0.080415	  0.083488	  0.744516	
9.94657	  0.077589	  0.079630	  0.743432	
9.97984	  0.073039	  0.073816	  0.722224	
10.0131	  0.067757	  0.067254	  0.682515	
10.0464	  0.062525	  0.060854	  0.631411	
10.0796	  0.057661	  0.054895	  0.573974	
10.1129	  0.053104	  0.049404	  0.514800	
10.1462	  0.048923	  0.044532	  0.461178	
10.1794	  0.045099	  0.040469	  0.416940	
10.2127	  0.041589	  0.037229	  0.380864	
